<?xml version="1.0" encoding="UTF-8" standalone="no"?><svg xmlns="http://www.w3.org/2000/svg" xmlns:xlink="http://www.w3.org/1999/xlink" clip-rule="evenodd" stroke-miterlimit="10" viewBox="0 0 1024 768"><desc>SVG generated by Keynote</desc><defs></defs><g transform="matrix(1.00, 0.00, -0.00, -1.00, 0.0, 768.0)"><path d="M 0.0 768.0 L 1024.0 768.0 L 1024.0 0.0 L 0.0 0.0 Z M 0.0 768.0 " fill="#FEFFFF"></path><g><clipPath id="clip0x6080010a5040"><path d="M 0.0 768.0 L 1024.0 768.0 L 1024.0 0.0 L 0.0 0.0 L 0.0 768.0 "></path></clipPath><g clip-path="url(#clip0x6080010a5040)"><image xlink:href="../../7965416F-7BBB-4E66-B4A0-E9DEC09D4108/assets/1A039B7EF96604F98DA912AC3BC01847.png" width="887.00" height="576.00" transform="matrix(0.56, 0.00, -0.00, -0.56, 41.0, 332.0)"></image></g></g><path d="M 41.0 435.7 L 41.0 758.2 L 537.7 758.2 L 537.7 435.7 L 41.0 435.7 Z M 41.0 435.7 " fill="none" stroke="#000000" stroke-opacity="0.00" stroke-width="1.00" stroke-linejoin="bevel" transform="matrix(1.00, 0.00, 0.00, -1.00, 0.0, 768.0)"></path><path d="M 0.0 0.0 L 922.0 0.0 " fill="none" stroke="#9A9A9A" stroke-width="1.00" stroke-linejoin="bevel" transform="matrix(1.00, -0.00, -0.00, -1.00, 51.0, 613.0)"></path><image xlink:href="../../7965416F-7BBB-4E66-B4A0-E9DEC09D4108/assets/F820D00766D77054A1A6E231293C2476.jpeg" width="163.00" height="49.00" transform="matrix(0.75, 0.00, -0.00, -0.73, 238.0, 412.0)"></image><image xlink:href="../../7965416F-7BBB-4E66-B4A0-E9DEC09D4108/assets/621DA4F2D65708449917A621FC51CA0D.jpeg" width="345.00" height="60.00" transform="matrix(0.75, 0.00, -0.00, -0.75, 392.0, 417.0)"></image><image xlink:href="../../7965416F-7BBB-4E66-B4A0-E9DEC09D4108/assets/4548EAAF9560B7A529E85D0E04C27FD1.jpeg" width="376.00" height="134.00" transform="matrix(0.75, 0.00, -0.00, -0.75, 678.0, 574.0)"></image><image xlink:href="../../7965416F-7BBB-4E66-B4A0-E9DEC09D4108/assets/6A5C4E09E6D22EAC92CD03C7FC13BC84.jpeg" width="222.00" height="47.00" transform="matrix(0.75, 0.00, -0.00, -0.74, 682.0, 410.0)"></image><g><clipPath id="clip0x608000ea9240"><path d="M 36.7 394.9 L 1024.0 394.9 L 1024.0 676.0 L 36.7 676.0 Z M 36.7 394.9 "></path></clipPath><g clip-path="url(#clip0x608000ea9240)"><text xml:space="preserve" font-family="HelveticaNeue,Helvetica Neue" font-size="42.0" fill="#000000" transform="matrix(1.00, 0.00, -0.00, -1.00, 49.0, 636.8)">O</text><text xml:space="preserve" font-family="HelveticaNeue,Helvetica Neue" font-size="42.0" fill="#000000" transform="matrix(1.00, 0.00, -0.00, -1.00, 80.9, 636.8)">p</text><text xml:space="preserve" font-family="HelveticaNeue,Helvetica Neue" font-size="42.0" fill="#000000" transform="matrix(1.00, 0.00, -0.00, -1.00, 105.8, 636.8)">e</text><text xml:space="preserve" font-family="HelveticaNeue,Helvetica Neue" font-size="42.0" fill="#000000" transform="matrix(1.00, 0.00, -0.00, -1.00, 128.4, 636.8)">n</text><text xml:space="preserve" font-family="TimesNewRomanPSMT,Times New Roman" font-size="42.0" fill="#000000" transform="matrix(1.00, 0.00, -0.00, -1.00, 151.7, 636.8)"> </text><text xml:space="preserve" font-family="HelveticaNeue,Helvetica Neue" font-size="42.0" fill="#000000" transform="matrix(1.00, 0.00, -0.00, -1.00, 162.2, 636.8)">S</text><text xml:space="preserve" font-family="HelveticaNeue,Helvetica Neue" font-size="42.0" fill="#000000" transform="matrix(1.00, 0.00, -0.00, -1.00, 189.4, 636.8)">c</text><text xml:space="preserve" font-family="HelveticaNeue,Helvetica Neue" font-size="42.0" fill="#000000" transform="matrix(1.00, 0.00, -0.00, -1.00, 212.0, 636.8)">i</text><text xml:space="preserve" font-family="HelveticaNeue,Helvetica Neue" font-size="42.0" fill="#000000" transform="matrix(1.00, 0.00, -0.00, -1.00, 221.3, 636.8)">e</text><text xml:space="preserve" font-family="HelveticaNeue,Helvetica Neue" font-size="42.0" fill="#000000" transform="matrix(1.00, 0.00, -0.00, -1.00, 243.9, 636.8)">n</text><text xml:space="preserve" font-family="HelveticaNeue,Helvetica Neue" font-size="42.0" fill="#000000" transform="matrix(1.00, 0.00, -0.00, -1.00, 267.2, 636.8)">c</text><text xml:space="preserve" font-family="HelveticaNeue,Helvetica Neue" font-size="42.0" fill="#000000" transform="matrix(1.00, 0.00, -0.00, -1.00, 289.8, 636.8)">e</text><text xml:space="preserve" font-family="HelveticaNeue,Helvetica Neue" font-size="42.0" fill="#000000" transform="matrix(1.00, 0.00, -0.00, -1.00, 312.3, 636.8)">
</text></g></g><text xml:space="preserve" font-family="HelveticaNeue,Helvetica Neue" font-size="37.0" fill="#747474" transform="matrix(1.00, 0.00, -0.00, -1.00, 49.0, 539.4)">•</text><text xml:space="preserve" font-family="TimesNewRomanPSMT,Times New Roman" font-size="37.0" fill="#000000" transform="matrix(1.00, 0.00, -0.00, -1.00, 62.0, 539.4)"> </text><text xml:space="preserve" font-family="HelveticaNeue,Helvetica Neue" font-size="37.0" fill="#747474" transform="matrix(1.00, 0.00, -0.00, -1.00, 71.2, 539.4)">Y</text><text xml:space="preserve" font-family="HelveticaNeue,Helvetica Neue" font-size="37.0" fill="#747474" transform="matrix(1.00, 0.00, -0.00, -1.00, 91.1, 539.4)">o</text><text xml:space="preserve" font-family="HelveticaNeue,Helvetica Neue" font-size="37.0" fill="#747474" transform="matrix(1.00, 0.00, -0.00, -1.00, 112.3, 539.4)">u</text><text xml:space="preserve" font-family="TimesNewRomanPSMT,Times New Roman" font-size="37.0" fill="#000000" transform="matrix(1.00, 0.00, -0.00, -1.00, 132.9, 539.4)"> </text><text xml:space="preserve" font-family="HelveticaNeue,Helvetica Neue" font-size="37.0" fill="#747474" transform="matrix(1.00, 0.00, -0.00, -1.00, 142.1, 539.4)">a</text><text xml:space="preserve" font-family="HelveticaNeue,Helvetica Neue" font-size="37.0" fill="#747474" transform="matrix(1.00, 0.00, -0.00, -1.00, 162.0, 539.4)">r</text><text xml:space="preserve" font-family="HelveticaNeue,Helvetica Neue" font-size="37.0" fill="#747474" transform="matrix(1.00, 0.00, -0.00, -1.00, 173.7, 539.4)">e</text><text xml:space="preserve" font-family="TimesNewRomanPSMT,Times New Roman" font-size="37.0" fill="#000000" transform="matrix(1.00, 0.00, -0.00, -1.00, 193.5, 539.4)"> </text><text xml:space="preserve" font-family="HelveticaNeue,Helvetica Neue" font-size="37.0" fill="#747474" transform="matrix(1.00, 0.00, -0.00, -1.00, 202.8, 539.4)">f</text><text xml:space="preserve" font-family="HelveticaNeue,Helvetica Neue" font-size="37.0" fill="#747474" transform="matrix(1.00, 0.00, -0.00, -1.00, 213.7, 539.4)">r</text><text xml:space="preserve" font-family="HelveticaNeue,Helvetica Neue" font-size="37.0" fill="#747474" transform="matrix(1.00, 0.00, -0.00, -1.00, 225.4, 539.4)">e</text><text xml:space="preserve" font-family="HelveticaNeue,Helvetica Neue" font-size="37.0" fill="#747474" transform="matrix(1.00, 0.00, -0.00, -1.00, 245.2, 539.4)">e</text><text xml:space="preserve" font-family="TimesNewRomanPSMT,Times New Roman" font-size="37.0" fill="#000000" transform="matrix(1.00, 0.00, -0.00, -1.00, 265.1, 539.4)"> </text><text xml:space="preserve" font-family="HelveticaNeue,Helvetica Neue" font-size="37.0" fill="#747474" transform="matrix(1.00, 0.00, -0.00, -1.00, 274.4, 539.4)">t</text><text xml:space="preserve" font-family="HelveticaNeue,Helvetica Neue" font-size="37.0" fill="#747474" transform="matrix(1.00, 0.00, -0.00, -1.00, 286.0, 539.4)">o</text><text xml:space="preserve" font-family="TimesNewRomanPSMT,Times New Roman" font-size="37.0" fill="#000000" transform="matrix(1.00, 0.00, -0.00, -1.00, 307.3, 539.4)"> </text><text xml:space="preserve" font-family="HelveticaNeue,Helvetica Neue" font-size="37.0" fill="#747474" transform="matrix(1.00, 0.00, -0.00, -1.00, 316.5, 539.4)">S</text><text xml:space="preserve" font-family="HelveticaNeue,Helvetica Neue" font-size="37.0" fill="#747474" transform="matrix(1.00, 0.00, -0.00, -1.00, 340.5, 539.4)">h</text><text xml:space="preserve" font-family="HelveticaNeue,Helvetica Neue" font-size="37.0" fill="#747474" transform="matrix(1.00, 0.00, -0.00, -1.00, 361.1, 539.4)">a</text><text xml:space="preserve" font-family="HelveticaNeue,Helvetica Neue" font-size="37.0" fill="#747474" transform="matrix(1.00, 0.00, -0.00, -1.00, 380.9, 539.4)">r</text><text xml:space="preserve" font-family="HelveticaNeue,Helvetica Neue" font-size="37.0" fill="#747474" transform="matrix(1.00, 0.00, -0.00, -1.00, 392.6, 539.4)">e</text><text xml:space="preserve" font-family="HelveticaNeue,Helvetica Neue" font-size="37.0" fill="#747474" transform="matrix(1.00, 0.00, -0.00, -1.00, 412.5, 539.4)">!</text><text xml:space="preserve" font-family="HelveticaNeue,Helvetica Neue" font-size="37.0" fill="#747474" transform="matrix(1.00, 0.00, -0.00, -1.00, 422.0, 539.4)">
</text><text xml:space="preserve" font-family="HelveticaNeue,Helvetica Neue" font-size="37.0" fill="#747474" transform="matrix(1.00, 0.00, -0.00, -1.00, 49.0, 448.4)">•</text><text xml:space="preserve" font-family="TimesNewRomanPSMT,Times New Roman" font-size="37.0" fill="#000000" transform="matrix(1.00, 0.00, -0.00, -1.00, 62.0, 448.4)"> </text><text xml:space="preserve" font-family="HelveticaNeue,Helvetica Neue" font-size="37.0" fill="#747474" transform="matrix(1.00, 0.00, -0.00, -1.00, 71.2, 448.4)">O</text><text xml:space="preserve" font-family="HelveticaNeue,Helvetica Neue" font-size="37.0" fill="#747474" transform="matrix(1.00, 0.00, -0.00, -1.00, 99.3, 448.4)">u</text><text xml:space="preserve" font-family="HelveticaNeue,Helvetica Neue" font-size="37.0" fill="#747474" transform="matrix(1.00, 0.00, -0.00, -1.00, 119.9, 448.4)">r</text><text xml:space="preserve" font-family="TimesNewRomanPSMT,Times New Roman" font-size="37.0" fill="#000000" transform="matrix(1.00, 0.00, -0.00, -1.00, 132.2, 448.4)"> </text><text xml:space="preserve" font-family="HelveticaNeue,Helvetica Neue" font-size="37.0" fill="#747474" transform="matrix(1.00, 0.00, -0.00, -1.00, 141.5, 448.4)">l</text><text xml:space="preserve" font-family="HelveticaNeue,Helvetica Neue" font-size="37.0" fill="#747474" transform="matrix(1.00, 0.00, -0.00, -1.00, 149.7, 448.4)">a</text><text xml:space="preserve" font-family="HelveticaNeue,Helvetica Neue" font-size="37.0" fill="#747474" transform="matrix(1.00, 0.00, -0.00, -1.00, 169.5, 448.4)">b</text><text xml:space="preserve" font-family="TimesNewRomanPSMT,Times New Roman" font-size="37.0" fill="#000000" transform="matrix(1.00, 0.00, -0.00, -1.00, 191.5, 448.4)"> </text><text xml:space="preserve" font-family="HelveticaNeue,Helvetica Neue" font-size="37.0" fill="#747474" transform="matrix(1.00, 0.00, -0.00, -1.00, 200.7, 448.4)">p</text><text xml:space="preserve" font-family="HelveticaNeue,Helvetica Neue" font-size="37.0" fill="#747474" transform="matrix(1.00, 0.00, -0.00, -1.00, 222.7, 448.4)">r</text><text xml:space="preserve" font-family="HelveticaNeue,Helvetica Neue" font-size="37.0" fill="#747474" transform="matrix(1.00, 0.00, -0.00, -1.00, 235.0, 448.4)">a</text><text xml:space="preserve" font-family="HelveticaNeue,Helvetica Neue" font-size="37.0" fill="#747474" transform="matrix(1.00, 0.00, -0.00, -1.00, 254.9, 448.4)">c</text><text xml:space="preserve" font-family="HelveticaNeue,Helvetica Neue" font-size="37.0" fill="#747474" transform="matrix(1.00, 0.00, -0.00, -1.00, 274.7, 448.4)">t</text><text xml:space="preserve" font-family="HelveticaNeue,Helvetica Neue" font-size="37.0" fill="#747474" transform="matrix(1.00, 0.00, -0.00, -1.00, 286.4, 448.4)">i</text><text xml:space="preserve" font-family="HelveticaNeue,Helvetica Neue" font-size="37.0" fill="#747474" transform="matrix(1.00, 0.00, -0.00, -1.00, 294.6, 448.4)">c</text><text xml:space="preserve" font-family="HelveticaNeue,Helvetica Neue" font-size="37.0" fill="#747474" transform="matrix(1.00, 0.00, -0.00, -1.00, 314.5, 448.4)">e</text><text xml:space="preserve" font-family="HelveticaNeue,Helvetica Neue" font-size="37.0" fill="#747474" transform="matrix(1.00, 0.00, -0.00, -1.00, 334.3, 448.4)">s</text><text xml:space="preserve" font-family="TimesNewRomanPSMT,Times New Roman" font-size="37.0" fill="#000000" transform="matrix(1.00, 0.00, -0.00, -1.00, 352.8, 448.4)"> </text><text xml:space="preserve" font-family="HelveticaNeue,Helvetica Neue" font-size="37.0" fill="#747474" transform="matrix(1.00, 0.00, -0.00, -1.00, 362.1, 448.4)">o</text><text xml:space="preserve" font-family="HelveticaNeue,Helvetica Neue" font-size="37.0" fill="#747474" transform="matrix(1.00, 0.00, -0.00, -1.00, 383.3, 448.4)">p</text><text xml:space="preserve" font-family="HelveticaNeue,Helvetica Neue" font-size="37.0" fill="#747474" transform="matrix(1.00, 0.00, -0.00, -1.00, 405.3, 448.4)">e</text><text xml:space="preserve" font-family="HelveticaNeue,Helvetica Neue" font-size="37.0" fill="#747474" transform="matrix(1.00, 0.00, -0.00, -1.00, 425.1, 448.4)">n</text><text xml:space="preserve" font-family="TimesNewRomanPSMT,Times New Roman" font-size="37.0" fill="#000000" transform="matrix(1.00, 0.00, -0.00, -1.00, 445.7, 448.4)"> </text><text xml:space="preserve" font-family="HelveticaNeue,Helvetica Neue" font-size="37.0" fill="#747474" transform="matrix(1.00, 0.00, -0.00, -1.00, 455.0, 448.4)">n</text><text xml:space="preserve" font-family="HelveticaNeue,Helvetica Neue" font-size="37.0" fill="#747474" transform="matrix(1.00, 0.00, -0.00, -1.00, 475.5, 448.4)">o</text><text xml:space="preserve" font-family="HelveticaNeue,Helvetica Neue" font-size="37.0" fill="#747474" transform="matrix(1.00, 0.00, -0.00, -1.00, 496.8, 448.4)">t</text><text xml:space="preserve" font-family="HelveticaNeue,Helvetica Neue" font-size="37.0" fill="#747474" transform="matrix(1.00, 0.00, -0.00, -1.00, 508.4, 448.4)">e</text><text xml:space="preserve" font-family="HelveticaNeue,Helvetica Neue" font-size="37.0" fill="#747474" transform="matrix(1.00, 0.00, -0.00, -1.00, 528.3, 448.4)">b</text><text xml:space="preserve" font-family="HelveticaNeue,Helvetica Neue" font-size="37.0" fill="#747474" transform="matrix(1.00, 0.00, -0.00, -1.00, 550.2, 448.4)">o</text><text xml:space="preserve" font-family="HelveticaNeue,Helvetica Neue" font-size="37.0" fill="#747474" transform="matrix(1.00, 0.00, -0.00, -1.00, 571.5, 448.4)">o</text><text xml:space="preserve" font-family="HelveticaNeue,Helvetica Neue" font-size="37.0" fill="#747474" transform="matrix(1.00, 0.00, -0.00, -1.00, 592.7, 448.4)">k</text><text xml:space="preserve" font-family="HelveticaNeue,Helvetica Neue" font-size="37.0" fill="#747474" transform="matrix(1.00, 0.00, -0.00, -1.00, 611.9, 448.4)">
</text><text xml:space="preserve" font-family="TrebuchetMS,Trebuchet MS" font-size="18.0" fill="#000000" transform="matrix(1.00, 0.00, -0.00, -1.00, 49.0, 402.8)"> </text><text xml:space="preserve" font-family="HelveticaNeue,Helvetica Neue" font-size="37.0" fill="#747474" transform="matrix(1.00, 0.00, -0.00, -1.00, 70.0, 402.8)">s</text><text xml:space="preserve" font-family="HelveticaNeue,Helvetica Neue" font-size="37.0" fill="#747474" transform="matrix(1.00, 0.00, -0.00, -1.00, 88.5, 402.8)">c</text><text xml:space="preserve" font-family="HelveticaNeue,Helvetica Neue" font-size="37.0" fill="#747474" transform="matrix(1.00, 0.00, -0.00, -1.00, 108.4, 402.8)">i</text><text xml:space="preserve" font-family="HelveticaNeue,Helvetica Neue" font-size="37.0" fill="#747474" transform="matrix(1.00, 0.00, -0.00, -1.00, 116.6, 402.8)">e</text><text xml:space="preserve" font-family="HelveticaNeue,Helvetica Neue" font-size="37.0" fill="#747474" transform="matrix(1.00, 0.00, -0.00, -1.00, 136.5, 402.8)">n</text><text xml:space="preserve" font-family="HelveticaNeue,Helvetica Neue" font-size="37.0" fill="#747474" transform="matrix(1.00, 0.00, -0.00, -1.00, 157.0, 402.8)">c</text><text xml:space="preserve" font-family="HelveticaNeue,Helvetica Neue" font-size="37.0" fill="#747474" transform="matrix(1.00, 0.00, -0.00, -1.00, 176.9, 402.8)">e</text><text xml:space="preserve" font-family="TrebuchetMS,Trebuchet MS" font-size="18.0" fill="#000000" transform="matrix(1.00, 0.00, -0.00, -1.00, 53.7, 402.8)"> </text><text xml:space="preserve" font-family="TrebuchetMS,Trebuchet MS" font-size="18.0" fill="#000000" transform="matrix(1.00, 0.00, -0.00, -1.00, 59.2, 402.8)"> </text><text xml:space="preserve" font-family="TrebuchetMS,Trebuchet MS" font-size="18.0" fill="#000000" transform="matrix(1.00, 0.00, -0.00, -1.00, 64.6, 402.8)"> </text><text xml:space="preserve" font-family="Helvetica-Light,Helvetica" font-size="36.0" fill="#000000" transform="matrix(1.00, 0.00, -0.00, -1.00, 456.9, 29.8)">h</text><text xml:space="preserve" font-family="Helvetica-Light,Helvetica" font-size="36.0" fill="#000000" transform="matrix(1.00, 0.00, -0.00, -1.00, 476.9, 29.8)">t</text><text xml:space="preserve" font-family="Helvetica-Light,Helvetica" font-size="36.0" fill="#000000" transform="matrix(1.00, 0.00, -0.00, -1.00, 486.9, 29.8)">t</text><text xml:space="preserve" font-family="Helvetica-Light,Helvetica" font-size="36.0" fill="#000000" transform="matrix(1.00, 0.00, -0.00, -1.00, 496.9, 29.8)">p</text><text xml:space="preserve" font-family="Helvetica-Light,Helvetica" font-size="36.0" fill="#000000" transform="matrix(1.00, 0.00, -0.00, -1.00, 518.9, 29.8)">:</text><text xml:space="preserve" font-family="Helvetica-Light,Helvetica" font-size="36.0" fill="#000000" transform="matrix(1.00, 0.00, -0.00, -1.00, 529.0, 29.8)">/</text><text xml:space="preserve" font-family="Helvetica-Light,Helvetica" font-size="36.0" fill="#000000" transform="matrix(1.00, 0.00, -0.00, -1.00, 539.0, 29.8)">/</text><text xml:space="preserve" font-family="Helvetica-Light,Helvetica" font-size="36.0" fill="#000000" transform="matrix(1.00, 0.00, -0.00, -1.00, 549.0, 29.8)">g</text><text xml:space="preserve" font-family="Helvetica-Light,Helvetica" font-size="36.0" fill="#000000" transform="matrix(1.00, 0.00, -0.00, -1.00, 571.0, 29.8)">e</text><text xml:space="preserve" font-family="Helvetica-Light,Helvetica" font-size="36.0" fill="#000000" transform="matrix(1.00, 0.00, -0.00, -1.00, 591.0, 29.8)">n</text><text xml:space="preserve" font-family="Helvetica-Light,Helvetica" font-size="36.0" fill="#000000" transform="matrix(1.00, 0.00, -0.00, -1.00, 611.0, 29.8)">e</text><text xml:space="preserve" font-family="Helvetica-Light,Helvetica" font-size="36.0" fill="#000000" transform="matrix(1.00, 0.00, -0.00, -1.00, 631.0, 29.8)">ﬁ</text><text xml:space="preserve" font-family="Helvetica-Light,Helvetica" font-size="36.0" fill="#000000" transform="matrix(1.00, 0.00, -0.00, -1.00, 649.0, 29.8)">s</text><text xml:space="preserve" font-family="Helvetica-Light,Helvetica" font-size="36.0" fill="#000000" transform="matrix(1.00, 0.00, -0.00, -1.00, 667.0, 29.8)">h</text><text xml:space="preserve" font-family="Helvetica-Light,Helvetica" font-size="36.0" fill="#000000" transform="matrix(1.00, 0.00, -0.00, -1.00, 687.0, 29.8)">.</text><text xml:space="preserve" font-family="Helvetica-Light,Helvetica" font-size="36.0" fill="#000000" transform="matrix(1.00, 0.00, -0.00, -1.00, 697.0, 29.8)">w</text><text xml:space="preserve" font-family="Helvetica-Light,Helvetica" font-size="36.0" fill="#000000" transform="matrix(1.00, 0.00, -0.00, -1.00, 723.0, 29.8)">i</text><text xml:space="preserve" font-family="Helvetica-Light,Helvetica" font-size="36.0" fill="#000000" transform="matrix(1.00, 0.00, -0.00, -1.00, 731.0, 29.8)">k</text><text xml:space="preserve" font-family="Helvetica-Light,Helvetica" font-size="36.0" fill="#000000" transform="matrix(1.00, 0.00, -0.00, -1.00, 749.0, 29.8)">i</text><text xml:space="preserve" font-family="Helvetica-Light,Helvetica" font-size="36.0" fill="#000000" transform="matrix(1.00, 0.00, -0.00, -1.00, 757.0, 29.8)">s</text><text xml:space="preserve" font-family="Helvetica-Light,Helvetica" font-size="36.0" fill="#000000" transform="matrix(1.00, 0.00, -0.00, -1.00, 775.0, 29.8)">p</text><text xml:space="preserve" font-family="Helvetica-Light,Helvetica" font-size="36.0" fill="#000000" transform="matrix(1.00, 0.00, -0.00, -1.00, 797.0, 29.8)">a</text><text xml:space="preserve" font-family="Helvetica-Light,Helvetica" font-size="36.0" fill="#000000" transform="matrix(1.00, 0.00, -0.00, -1.00, 817.0, 29.8)">c</text><text xml:space="preserve" font-family="Helvetica-Light,Helvetica" font-size="36.0" fill="#000000" transform="matrix(1.00, 0.00, -0.00, -1.00, 837.0, 29.8)">e</text><text xml:space="preserve" font-family="Helvetica-Light,Helvetica" font-size="36.0" fill="#000000" transform="matrix(1.00, 0.00, -0.00, -1.00, 857.1, 29.8)">s</text><text xml:space="preserve" font-family="Helvetica-Light,Helvetica" font-size="36.0" fill="#000000" transform="matrix(1.00, 0.00, -0.00, -1.00, 875.1, 29.8)">.</text><text xml:space="preserve" font-family="Helvetica-Light,Helvetica" font-size="36.0" fill="#000000" transform="matrix(1.00, 0.00, -0.00, -1.00, 885.1, 29.8)">c</text><text xml:space="preserve" font-family="Helvetica-Light,Helvetica" font-size="36.0" fill="#000000" transform="matrix(1.00, 0.00, -0.00, -1.00, 905.1, 29.8)">o</text><text xml:space="preserve" font-family="Helvetica-Light,Helvetica" font-size="36.0" fill="#000000" transform="matrix(1.00, 0.00, -0.00, -1.00, 925.1, 29.8)">m</text></g></svg>