<?xml version="1.0" encoding="UTF-8" standalone="no"?><svg xmlns="http://www.w3.org/2000/svg" xmlns:xlink="http://www.w3.org/1999/xlink" clip-rule="evenodd" stroke-miterlimit="10" viewBox="0 0 1024 768"><desc>SVG generated by Keynote</desc><defs></defs><g transform="matrix(1.00, 0.00, -0.00, -1.00, 0.0, 768.0)"><path d="M 0.0 768.0 L 1024.0 768.0 L 1024.0 0.0 L 0.0 0.0 Z M 0.0 768.0 " fill="#FEFFFF"></path><text xml:space="preserve" font-family="Helvetica-Light,Helvetica" font-size="80.0" fill="#000000" transform="matrix(1.00, 0.00, -0.00, -1.00, 330.4, 378.4)">S</text><text xml:space="preserve" font-family="Helvetica-Light,Helvetica" font-size="80.0" fill="#000000" transform="matrix(1.00, 0.00, -0.00, -1.00, 379.3, 378.4)">Q</text><text xml:space="preserve" font-family="Helvetica-Light,Helvetica" font-size="80.0" fill="#000000" transform="matrix(1.00, 0.00, -0.00, -1.00, 441.6, 378.4)">L</text><text xml:space="preserve" font-family="Helvetica-Light,Helvetica" font-size="80.0" fill="#000000" transform="matrix(1.00, 0.00, -0.00, -1.00, 486.0, 378.4)">S</text><text xml:space="preserve" font-family="Helvetica-Light,Helvetica" font-size="80.0" fill="#000000" transform="matrix(1.00, 0.00, -0.00, -1.00, 534.9, 378.4)">h</text><text xml:space="preserve" font-family="Helvetica-Light,Helvetica" font-size="80.0" fill="#000000" transform="matrix(1.00, 0.00, -0.00, -1.00, 579.4, 378.4)">a</text><text xml:space="preserve" font-family="Helvetica-Light,Helvetica" font-size="80.0" fill="#000000" transform="matrix(1.00, 0.00, -0.00, -1.00, 623.9, 378.4)">r</text><text xml:space="preserve" font-family="Helvetica-Light,Helvetica" font-size="80.0" fill="#000000" transform="matrix(1.00, 0.00, -0.00, -1.00, 649.1, 378.4)">e</text><text xml:space="preserve" font-family="Helvetica-Light,Helvetica" font-size="80.0" fill="#000000" transform="matrix(1.00, 0.00, -0.00, -1.00, 693.6, 378.4)"> </text><text xml:space="preserve" font-family="Helvetica-Light,Helvetica" font-size="40.0" fill="#000000" transform="matrix(1.00, 0.00, -0.00, -1.00, 364.5, 321.2)">s</text><text xml:space="preserve" font-family="Helvetica-Light,Helvetica" font-size="40.0" fill="#000000" transform="matrix(1.00, 0.00, -0.00, -1.00, 384.5, 321.2)">o</text><text xml:space="preserve" font-family="Helvetica-Light,Helvetica" font-size="40.0" fill="#000000" transform="matrix(1.00, 0.00, -0.00, -1.00, 406.8, 321.2)"> </text><text xml:space="preserve" font-family="Helvetica-Light,Helvetica" font-size="40.0" fill="#000000" transform="matrix(1.00, 0.00, -0.00, -1.00, 417.9, 321.2)">m</text><text xml:space="preserve" font-family="Helvetica-Light,Helvetica" font-size="40.0" fill="#000000" transform="matrix(1.00, 0.00, -0.00, -1.00, 451.2, 321.2)">u</text><text xml:space="preserve" font-family="Helvetica-Light,Helvetica" font-size="40.0" fill="#000000" transform="matrix(1.00, 0.00, -0.00, -1.00, 473.5, 321.2)">c</text><text xml:space="preserve" font-family="Helvetica-Light,Helvetica" font-size="40.0" fill="#000000" transform="matrix(1.00, 0.00, -0.00, -1.00, 495.7, 321.2)">h</text><text xml:space="preserve" font-family="Helvetica-Light,Helvetica" font-size="40.0" fill="#000000" transform="matrix(1.00, 0.00, -0.00, -1.00, 517.9, 321.2)"> </text><text xml:space="preserve" font-family="Helvetica-Light,Helvetica" font-size="40.0" fill="#000000" transform="matrix(1.00, 0.00, -0.00, -1.00, 529.1, 321.2)">m</text><text xml:space="preserve" font-family="Helvetica-Light,Helvetica" font-size="40.0" fill="#000000" transform="matrix(1.00, 0.00, -0.00, -1.00, 562.4, 321.2)">o</text><text xml:space="preserve" font-family="Helvetica-Light,Helvetica" font-size="40.0" fill="#000000" transform="matrix(1.00, 0.00, -0.00, -1.00, 584.6, 321.2)">r</text><text xml:space="preserve" font-family="Helvetica-Light,Helvetica" font-size="40.0" fill="#000000" transform="matrix(1.00, 0.00, -0.00, -1.00, 597.2, 321.2)">e</text><text xml:space="preserve" font-family="Helvetica-Light,Helvetica" font-size="40.0" fill="#000000" transform="matrix(1.00, 0.00, -0.00, -1.00, 619.5, 321.2)">…</text></g></svg>