<?xml version="1.0" encoding="UTF-8" standalone="no"?><svg xmlns="http://www.w3.org/2000/svg" xmlns:xlink="http://www.w3.org/1999/xlink" clip-rule="evenodd" stroke-miterlimit="10" viewBox="0 0 1024 768"><desc>SVG generated by Keynote</desc><defs></defs><g transform="matrix(1.00, 0.00, -0.00, -1.00, 0.0, 768.0)"><path d="M 0.0 768.0 L 1024.0 768.0 L 1024.0 0.0 L 0.0 0.0 Z M 0.0 768.0 " fill="#FEFFFF"></path><text xml:space="preserve" font-family="Helvetica-Light,Helvetica" font-size="80.0" fill="#000000" transform="matrix(1.00, 0.00, -0.00, -1.00, 225.2, 354.4)">D</text><text xml:space="preserve" font-family="Helvetica-Light,Helvetica" font-size="80.0" fill="#000000" transform="matrix(1.00, 0.00, -0.00, -1.00, 283.0, 354.4)">o</text><text xml:space="preserve" font-family="Helvetica-Light,Helvetica" font-size="80.0" fill="#000000" transform="matrix(1.00, 0.00, -0.00, -1.00, 327.5, 354.4)">m</text><text xml:space="preserve" font-family="Helvetica-Light,Helvetica" font-size="80.0" fill="#000000" transform="matrix(1.00, 0.00, -0.00, -1.00, 394.1, 354.4)">a</text><text xml:space="preserve" font-family="Helvetica-Light,Helvetica" font-size="80.0" fill="#000000" transform="matrix(1.00, 0.00, -0.00, -1.00, 438.6, 354.4)">i</text><text xml:space="preserve" font-family="Helvetica-Light,Helvetica" font-size="80.0" fill="#000000" transform="matrix(1.00, 0.00, -0.00, -1.00, 456.4, 354.4)">n</text><text xml:space="preserve" font-family="Helvetica-Light,Helvetica" font-size="80.0" fill="#000000" transform="matrix(1.00, 0.00, -0.00, -1.00, 500.8, 354.4)"> </text><text xml:space="preserve" font-family="Helvetica-Light,Helvetica" font-size="80.0" fill="#000000" transform="matrix(1.00, 0.00, -0.00, -1.00, 523.1, 354.4)">C</text><text xml:space="preserve" font-family="Helvetica-Light,Helvetica" font-size="80.0" fill="#000000" transform="matrix(1.00, 0.00, -0.00, -1.00, 580.8, 354.4)">o</text><text xml:space="preserve" font-family="Helvetica-Light,Helvetica" font-size="80.0" fill="#000000" transform="matrix(1.00, 0.00, -0.00, -1.00, 625.3, 354.4)">n</text><text xml:space="preserve" font-family="Helvetica-Light,Helvetica" font-size="80.0" fill="#000000" transform="matrix(1.00, 0.00, -0.00, -1.00, 669.8, 354.4)">t</text><text xml:space="preserve" font-family="Helvetica-Light,Helvetica" font-size="80.0" fill="#000000" transform="matrix(1.00, 0.00, -0.00, -1.00, 692.0, 354.4)">e</text><text xml:space="preserve" font-family="Helvetica-Light,Helvetica" font-size="80.0" fill="#000000" transform="matrix(1.00, 0.00, -0.00, -1.00, 736.5, 354.4)">x</text><text xml:space="preserve" font-family="Helvetica-Light,Helvetica" font-size="80.0" fill="#000000" transform="matrix(1.00, 0.00, -0.00, -1.00, 776.5, 354.4)">t</text></g></svg>