<?xml version="1.0" encoding="UTF-8" standalone="no"?><svg xmlns="http://www.w3.org/2000/svg" xmlns:xlink="http://www.w3.org/1999/xlink" clip-rule="evenodd" stroke-miterlimit="10" viewBox="0 0 1024 768"><desc>SVG generated by Keynote</desc><defs></defs><g transform="matrix(1.00, 0.00, -0.00, -1.00, 0.0, 768.0)"><path d="M 0.0 768.0 L 1024.0 768.0 L 1024.0 0.0 L 0.0 0.0 Z M 0.0 768.0 " fill="#FEFFFF"></path><text xml:space="preserve" font-family="Helvetica-Light,Helvetica" font-size="75.2" fill="#000000" transform="matrix(1.00, 0.00, -0.00, -1.00, 149.1, 490.3)">I</text><text xml:space="preserve" font-family="Helvetica-Light,Helvetica" font-size="75.2" fill="#000000" transform="matrix(1.00, 0.00, -0.00, -1.00, 170.0, 490.3)">n</text><text xml:space="preserve" font-family="Helvetica-Light,Helvetica" font-size="75.2" fill="#000000" transform="matrix(1.00, 0.00, -0.00, -1.00, 211.8, 490.3)">t</text><text xml:space="preserve" font-family="Helvetica-Light,Helvetica" font-size="75.2" fill="#000000" transform="matrix(1.00, 0.00, -0.00, -1.00, 232.7, 490.3)">e</text><text xml:space="preserve" font-family="Helvetica-Light,Helvetica" font-size="75.2" fill="#000000" transform="matrix(1.00, 0.00, -0.00, -1.00, 274.5, 490.3)">g</text><text xml:space="preserve" font-family="Helvetica-Light,Helvetica" font-size="75.2" fill="#000000" transform="matrix(1.00, 0.00, -0.00, -1.00, 320.5, 490.3)">r</text><text xml:space="preserve" font-family="Helvetica-Light,Helvetica" font-size="75.2" fill="#000000" transform="matrix(1.00, 0.00, -0.00, -1.00, 345.5, 490.3)">a</text><text xml:space="preserve" font-family="Helvetica-Light,Helvetica" font-size="75.2" fill="#000000" transform="matrix(1.00, 0.00, -0.00, -1.00, 387.3, 490.3)">t</text><text xml:space="preserve" font-family="Helvetica-Light,Helvetica" font-size="75.2" fill="#000000" transform="matrix(1.00, 0.00, -0.00, -1.00, 408.2, 490.3)">i</text><text xml:space="preserve" font-family="Helvetica-Light,Helvetica" font-size="75.2" fill="#000000" transform="matrix(1.00, 0.00, -0.00, -1.00, 424.9, 490.3)">n</text><text xml:space="preserve" font-family="Helvetica-Light,Helvetica" font-size="75.2" fill="#000000" transform="matrix(1.00, 0.00, -0.00, -1.00, 466.7, 490.3)">g</text><text xml:space="preserve" font-family="Helvetica-Light,Helvetica" font-size="75.2" fill="#000000" transform="matrix(1.00, 0.00, -0.00, -1.00, 512.7, 490.3)"> </text><text xml:space="preserve" font-family="Helvetica-Light,Helvetica" font-size="75.2" fill="#000000" transform="matrix(1.00, 0.00, -0.00, -1.00, 533.6, 490.3)">S</text><text xml:space="preserve" font-family="Helvetica-Light,Helvetica" font-size="75.2" fill="#000000" transform="matrix(1.00, 0.00, -0.00, -1.00, 579.5, 490.3)">Q</text><text xml:space="preserve" font-family="Helvetica-Light,Helvetica" font-size="75.2" fill="#000000" transform="matrix(1.00, 0.00, -0.00, -1.00, 638.0, 490.3)">L</text><text xml:space="preserve" font-family="Helvetica-Light,Helvetica" font-size="75.2" fill="#000000" transform="matrix(1.00, 0.00, -0.00, -1.00, 679.8, 490.3)">S</text><text xml:space="preserve" font-family="Helvetica-Light,Helvetica" font-size="75.2" fill="#000000" transform="matrix(1.00, 0.00, -0.00, -1.00, 725.8, 490.3)">h</text><text xml:space="preserve" font-family="Helvetica-Light,Helvetica" font-size="75.2" fill="#000000" transform="matrix(1.00, 0.00, -0.00, -1.00, 767.6, 490.3)">a</text><text xml:space="preserve" font-family="Helvetica-Light,Helvetica" font-size="75.2" fill="#000000" transform="matrix(1.00, 0.00, -0.00, -1.00, 809.4, 490.3)">r</text><text xml:space="preserve" font-family="Helvetica-Light,Helvetica" font-size="75.2" fill="#000000" transform="matrix(1.00, 0.00, -0.00, -1.00, 833.1, 490.3)">e</text><text xml:space="preserve" font-family="Helvetica-Light,Helvetica" font-size="75.2" fill="#000000" transform="matrix(1.00, 0.00, -0.00, -1.00, 874.9, 490.3)"> </text><text xml:space="preserve" font-family="Helvetica-Light,Helvetica" font-size="75.2" fill="#000000" transform="matrix(1.00, 0.00, -0.00, -1.00, 107.3, 400.3)">i</text><text xml:space="preserve" font-family="Helvetica-Light,Helvetica" font-size="75.2" fill="#000000" transform="matrix(1.00, 0.00, -0.00, -1.00, 124.0, 400.3)">n</text><text xml:space="preserve" font-family="Helvetica-Light,Helvetica" font-size="75.2" fill="#000000" transform="matrix(1.00, 0.00, -0.00, -1.00, 165.8, 400.3)">t</text><text xml:space="preserve" font-family="Helvetica-Light,Helvetica" font-size="75.2" fill="#000000" transform="matrix(1.00, 0.00, -0.00, -1.00, 186.7, 400.3)">o</text><text xml:space="preserve" font-family="Helvetica-Light,Helvetica" font-size="75.2" fill="#000000" transform="matrix(1.00, 0.00, -0.00, -1.00, 228.5, 400.3)"> </text><text xml:space="preserve" font-family="Helvetica-Light,Helvetica" font-size="75.2" fill="#000000" transform="matrix(1.00, 0.00, -0.00, -1.00, 249.4, 400.3)">G</text><text xml:space="preserve" font-family="Helvetica-Light,Helvetica" font-size="75.2" fill="#000000" transform="matrix(1.00, 0.00, -0.00, -1.00, 307.9, 400.3)">e</text><text xml:space="preserve" font-family="Helvetica-Light,Helvetica" font-size="75.2" fill="#000000" transform="matrix(1.00, 0.00, -0.00, -1.00, 349.8, 400.3)">n</text><text xml:space="preserve" font-family="Helvetica-Light,Helvetica" font-size="75.2" fill="#000000" transform="matrix(1.00, 0.00, -0.00, -1.00, 391.6, 400.3)">o</text><text xml:space="preserve" font-family="Helvetica-Light,Helvetica" font-size="75.2" fill="#000000" transform="matrix(1.00, 0.00, -0.00, -1.00, 433.4, 400.3)">m</text><text xml:space="preserve" font-family="Helvetica-Light,Helvetica" font-size="75.2" fill="#000000" transform="matrix(1.00, 0.00, -0.00, -1.00, 496.0, 400.3)">i</text><text xml:space="preserve" font-family="Helvetica-Light,Helvetica" font-size="75.2" fill="#000000" transform="matrix(1.00, 0.00, -0.00, -1.00, 512.7, 400.3)">c</text><text xml:space="preserve" font-family="Helvetica-Light,Helvetica" font-size="75.2" fill="#000000" transform="matrix(1.00, 0.00, -0.00, -1.00, 554.5, 400.3)"> </text><text xml:space="preserve" font-family="Helvetica-Light,Helvetica" font-size="75.2" fill="#000000" transform="matrix(1.00, 0.00, -0.00, -1.00, 575.4, 400.3)">W</text><text xml:space="preserve" font-family="Helvetica-Light,Helvetica" font-size="75.2" fill="#000000" transform="matrix(1.00, 0.00, -0.00, -1.00, 640.9, 400.3)">o</text><text xml:space="preserve" font-family="Helvetica-Light,Helvetica" font-size="75.2" fill="#000000" transform="matrix(1.00, 0.00, -0.00, -1.00, 682.7, 400.3)">r</text><text xml:space="preserve" font-family="Helvetica-Light,Helvetica" font-size="75.2" fill="#000000" transform="matrix(1.00, 0.00, -0.00, -1.00, 707.8, 400.3)">k</text><text xml:space="preserve" font-family="Helvetica-Light,Helvetica" font-size="75.2" fill="#000000" transform="matrix(1.00, 0.00, -0.00, -1.00, 745.4, 400.3)">ﬂ</text><text xml:space="preserve" font-family="Helvetica-Light,Helvetica" font-size="75.2" fill="#000000" transform="matrix(1.00, 0.00, -0.00, -1.00, 783.0, 400.3)">o</text><text xml:space="preserve" font-family="Helvetica-Light,Helvetica" font-size="75.2" fill="#000000" transform="matrix(1.00, 0.00, -0.00, -1.00, 824.8, 400.3)">w</text><text xml:space="preserve" font-family="Helvetica-Light,Helvetica" font-size="75.2" fill="#000000" transform="matrix(1.00, 0.00, -0.00, -1.00, 879.1, 400.3)">s</text><text xml:space="preserve" font-family="Helvetica-Light,Helvetica" font-size="19.5" fill="#000000" transform="matrix(1.00, 0.00, -0.00, -1.00, 445.1, 304.5)">S</text><text xml:space="preserve" font-family="Helvetica-Light,Helvetica" font-size="19.5" fill="#000000" transform="matrix(1.00, 0.00, -0.00, -1.00, 457.0, 304.5)">t</text><text xml:space="preserve" font-family="Helvetica-Light,Helvetica" font-size="19.5" fill="#000000" transform="matrix(1.00, 0.00, -0.00, -1.00, 462.5, 304.5)">e</text><text xml:space="preserve" font-family="Helvetica-Light,Helvetica" font-size="19.5" fill="#000000" transform="matrix(1.00, 0.00, -0.00, -1.00, 473.3, 304.5)">v</text><text xml:space="preserve" font-family="Helvetica-Light,Helvetica" font-size="19.5" fill="#000000" transform="matrix(1.00, 0.00, -0.00, -1.00, 483.1, 304.5)">e</text><text xml:space="preserve" font-family="Helvetica-Light,Helvetica" font-size="19.5" fill="#000000" transform="matrix(1.00, 0.00, -0.00, -1.00, 493.9, 304.5)">n</text><text xml:space="preserve" font-family="Helvetica-Light,Helvetica" font-size="19.5" fill="#000000" transform="matrix(1.00, 0.00, -0.00, -1.00, 504.8, 304.5)"> </text><text xml:space="preserve" font-family="Helvetica-Light,Helvetica" font-size="19.5" fill="#000000" transform="matrix(1.00, 0.00, -0.00, -1.00, 510.2, 304.5)">R</text><text xml:space="preserve" font-family="Helvetica-Light,Helvetica" font-size="19.5" fill="#000000" transform="matrix(1.00, 0.00, -0.00, -1.00, 523.2, 304.5)">o</text><text xml:space="preserve" font-family="Helvetica-Light,Helvetica" font-size="19.5" fill="#000000" transform="matrix(1.00, 0.00, -0.00, -1.00, 534.1, 304.5)">b</text><text xml:space="preserve" font-family="Helvetica-Light,Helvetica" font-size="19.5" fill="#000000" transform="matrix(1.00, 0.00, -0.00, -1.00, 546.0, 304.5)">e</text><text xml:space="preserve" font-family="Helvetica-Light,Helvetica" font-size="19.5" fill="#000000" transform="matrix(1.00, 0.00, -0.00, -1.00, 556.9, 304.5)">r</text><text xml:space="preserve" font-family="Helvetica-Light,Helvetica" font-size="19.5" fill="#000000" transform="matrix(1.00, 0.00, -0.00, -1.00, 563.7, 304.5)">t</text><text xml:space="preserve" font-family="Helvetica-Light,Helvetica" font-size="19.5" fill="#000000" transform="matrix(1.00, 0.00, -0.00, -1.00, 569.1, 304.5)">s</text><text xml:space="preserve" font-family="Helvetica-Light,Helvetica" font-size="19.5" fill="#000000" transform="matrix(1.00, 0.00, -0.00, -1.00, 578.9, 304.5)"> </text><text xml:space="preserve" font-family="Helvetica-Light,Helvetica" font-size="19.5" fill="#000000" transform="matrix(1.00, 0.00, -0.00, -1.00, 425.4, 281.5)">A</text><text xml:space="preserve" font-family="Helvetica-Light,Helvetica" font-size="19.5" fill="#000000" transform="matrix(1.00, 0.00, -0.00, -1.00, 438.4, 281.5)">s</text><text xml:space="preserve" font-family="Helvetica-Light,Helvetica" font-size="19.5" fill="#000000" transform="matrix(1.00, 0.00, -0.00, -1.00, 448.2, 281.5)">s</text><text xml:space="preserve" font-family="Helvetica-Light,Helvetica" font-size="19.5" fill="#000000" transform="matrix(1.00, 0.00, -0.00, -1.00, 457.9, 281.5)">o</text><text xml:space="preserve" font-family="Helvetica-Light,Helvetica" font-size="19.5" fill="#000000" transform="matrix(1.00, 0.00, -0.00, -1.00, 468.8, 281.5)">c</text><text xml:space="preserve" font-family="Helvetica-Light,Helvetica" font-size="19.5" fill="#000000" transform="matrix(1.00, 0.00, -0.00, -1.00, 479.6, 281.5)">i</text><text xml:space="preserve" font-family="Helvetica-Light,Helvetica" font-size="19.5" fill="#000000" transform="matrix(1.00, 0.00, -0.00, -1.00, 484.0, 281.5)">a</text><text xml:space="preserve" font-family="Helvetica-Light,Helvetica" font-size="19.5" fill="#000000" transform="matrix(1.00, 0.00, -0.00, -1.00, 494.8, 281.5)">t</text><text xml:space="preserve" font-family="Helvetica-Light,Helvetica" font-size="19.5" fill="#000000" transform="matrix(1.00, 0.00, -0.00, -1.00, 500.2, 281.5)">e</text><text xml:space="preserve" font-family="Helvetica-Light,Helvetica" font-size="19.5" fill="#000000" transform="matrix(1.00, 0.00, -0.00, -1.00, 511.1, 281.5)"> </text><text xml:space="preserve" font-family="Helvetica-Light,Helvetica" font-size="19.5" fill="#000000" transform="matrix(1.00, 0.00, -0.00, -1.00, 516.5, 281.5)">P</text><text xml:space="preserve" font-family="Helvetica-Light,Helvetica" font-size="19.5" fill="#000000" transform="matrix(1.00, 0.00, -0.00, -1.00, 528.5, 281.5)">r</text><text xml:space="preserve" font-family="Helvetica-Light,Helvetica" font-size="19.5" fill="#000000" transform="matrix(1.00, 0.00, -0.00, -1.00, 534.6, 281.5)">o</text><text xml:space="preserve" font-family="Helvetica-Light,Helvetica" font-size="19.5" fill="#000000" transform="matrix(1.00, 0.00, -0.00, -1.00, 545.5, 281.5)">f</text><text xml:space="preserve" font-family="Helvetica-Light,Helvetica" font-size="19.5" fill="#000000" transform="matrix(1.00, 0.00, -0.00, -1.00, 550.9, 281.5)">e</text><text xml:space="preserve" font-family="Helvetica-Light,Helvetica" font-size="19.5" fill="#000000" transform="matrix(1.00, 0.00, -0.00, -1.00, 561.7, 281.5)">s</text><text xml:space="preserve" font-family="Helvetica-Light,Helvetica" font-size="19.5" fill="#000000" transform="matrix(1.00, 0.00, -0.00, -1.00, 571.5, 281.5)">s</text><text xml:space="preserve" font-family="Helvetica-Light,Helvetica" font-size="19.5" fill="#000000" transform="matrix(1.00, 0.00, -0.00, -1.00, 581.3, 281.5)">o</text><text xml:space="preserve" font-family="Helvetica-Light,Helvetica" font-size="19.5" fill="#000000" transform="matrix(1.00, 0.00, -0.00, -1.00, 592.1, 281.5)">r</text><text xml:space="preserve" font-family="Helvetica-Light,Helvetica" font-size="19.5" fill="#000000" transform="matrix(1.00, 0.00, -0.00, -1.00, 598.6, 281.5)"> </text><text xml:space="preserve" font-family="Helvetica-Light,Helvetica" font-size="19.5" fill="#000000" transform="matrix(1.00, 0.00, -0.00, -1.00, 338.2, 258.5)">S</text><text xml:space="preserve" font-family="Helvetica-Light,Helvetica" font-size="19.5" fill="#000000" transform="matrix(1.00, 0.00, -0.00, -1.00, 350.2, 258.5)">c</text><text xml:space="preserve" font-family="Helvetica-Light,Helvetica" font-size="19.5" fill="#000000" transform="matrix(1.00, 0.00, -0.00, -1.00, 361.0, 258.5)">h</text><text xml:space="preserve" font-family="Helvetica-Light,Helvetica" font-size="19.5" fill="#000000" transform="matrix(1.00, 0.00, -0.00, -1.00, 371.9, 258.5)">o</text><text xml:space="preserve" font-family="Helvetica-Light,Helvetica" font-size="19.5" fill="#000000" transform="matrix(1.00, 0.00, -0.00, -1.00, 382.7, 258.5)">o</text><text xml:space="preserve" font-family="Helvetica-Light,Helvetica" font-size="19.5" fill="#000000" transform="matrix(1.00, 0.00, -0.00, -1.00, 393.6, 258.5)">l</text><text xml:space="preserve" font-family="Helvetica-Light,Helvetica" font-size="19.5" fill="#000000" transform="matrix(1.00, 0.00, -0.00, -1.00, 397.9, 258.5)"> </text><text xml:space="preserve" font-family="Helvetica-Light,Helvetica" font-size="19.5" fill="#000000" transform="matrix(1.00, 0.00, -0.00, -1.00, 403.3, 258.5)">o</text><text xml:space="preserve" font-family="Helvetica-Light,Helvetica" font-size="19.5" fill="#000000" transform="matrix(1.00, 0.00, -0.00, -1.00, 414.2, 258.5)">f</text><text xml:space="preserve" font-family="Helvetica-Light,Helvetica" font-size="19.5" fill="#000000" transform="matrix(1.00, 0.00, -0.00, -1.00, 419.6, 258.5)"> </text><text xml:space="preserve" font-family="Helvetica-Light,Helvetica" font-size="19.5" fill="#000000" transform="matrix(1.00, 0.00, -0.00, -1.00, 425.0, 258.5)">A</text><text xml:space="preserve" font-family="Helvetica-Light,Helvetica" font-size="19.5" fill="#000000" transform="matrix(1.00, 0.00, -0.00, -1.00, 438.1, 258.5)">q</text><text xml:space="preserve" font-family="Helvetica-Light,Helvetica" font-size="19.5" fill="#000000" transform="matrix(1.00, 0.00, -0.00, -1.00, 450.0, 258.5)">u</text><text xml:space="preserve" font-family="Helvetica-Light,Helvetica" font-size="19.5" fill="#000000" transform="matrix(1.00, 0.00, -0.00, -1.00, 460.8, 258.5)">a</text><text xml:space="preserve" font-family="Helvetica-Light,Helvetica" font-size="19.5" fill="#000000" transform="matrix(1.00, 0.00, -0.00, -1.00, 471.7, 258.5)">t</text><text xml:space="preserve" font-family="Helvetica-Light,Helvetica" font-size="19.5" fill="#000000" transform="matrix(1.00, 0.00, -0.00, -1.00, 477.1, 258.5)">i</text><text xml:space="preserve" font-family="Helvetica-Light,Helvetica" font-size="19.5" fill="#000000" transform="matrix(1.00, 0.00, -0.00, -1.00, 481.5, 258.5)">c</text><text xml:space="preserve" font-family="Helvetica-Light,Helvetica" font-size="19.5" fill="#000000" transform="matrix(1.00, 0.00, -0.00, -1.00, 492.3, 258.5)"> </text><text xml:space="preserve" font-family="Helvetica-Light,Helvetica" font-size="19.5" fill="#000000" transform="matrix(1.00, 0.00, -0.00, -1.00, 497.7, 258.5)">a</text><text xml:space="preserve" font-family="Helvetica-Light,Helvetica" font-size="19.5" fill="#000000" transform="matrix(1.00, 0.00, -0.00, -1.00, 508.6, 258.5)">n</text><text xml:space="preserve" font-family="Helvetica-Light,Helvetica" font-size="19.5" fill="#000000" transform="matrix(1.00, 0.00, -0.00, -1.00, 519.4, 258.5)">d</text><text xml:space="preserve" font-family="Helvetica-Light,Helvetica" font-size="19.5" fill="#000000" transform="matrix(1.00, 0.00, -0.00, -1.00, 531.4, 258.5)"> </text><text xml:space="preserve" font-family="Helvetica-Light,Helvetica" font-size="19.5" fill="#000000" transform="matrix(1.00, 0.00, -0.00, -1.00, 536.8, 258.5)">F</text><text xml:space="preserve" font-family="Helvetica-Light,Helvetica" font-size="19.5" fill="#000000" transform="matrix(1.00, 0.00, -0.00, -1.00, 547.6, 258.5)">i</text><text xml:space="preserve" font-family="Helvetica-Light,Helvetica" font-size="19.5" fill="#000000" transform="matrix(1.00, 0.00, -0.00, -1.00, 552.0, 258.5)">s</text><text xml:space="preserve" font-family="Helvetica-Light,Helvetica" font-size="19.5" fill="#000000" transform="matrix(1.00, 0.00, -0.00, -1.00, 561.7, 258.5)">h</text><text xml:space="preserve" font-family="Helvetica-Light,Helvetica" font-size="19.5" fill="#000000" transform="matrix(1.00, 0.00, -0.00, -1.00, 572.6, 258.5)">e</text><text xml:space="preserve" font-family="Helvetica-Light,Helvetica" font-size="19.5" fill="#000000" transform="matrix(1.00, 0.00, -0.00, -1.00, 583.4, 258.5)">r</text><text xml:space="preserve" font-family="Helvetica-Light,Helvetica" font-size="19.5" fill="#000000" transform="matrix(1.00, 0.00, -0.00, -1.00, 590.3, 258.5)">y</text><text xml:space="preserve" font-family="Helvetica-Light,Helvetica" font-size="19.5" fill="#000000" transform="matrix(1.00, 0.00, -0.00, -1.00, 600.1, 258.5)"> </text><text xml:space="preserve" font-family="Helvetica-Light,Helvetica" font-size="19.5" fill="#000000" transform="matrix(1.00, 0.00, -0.00, -1.00, 605.5, 258.5)">S</text><text xml:space="preserve" font-family="Helvetica-Light,Helvetica" font-size="19.5" fill="#000000" transform="matrix(1.00, 0.00, -0.00, -1.00, 617.4, 258.5)">c</text><text xml:space="preserve" font-family="Helvetica-Light,Helvetica" font-size="19.5" fill="#000000" transform="matrix(1.00, 0.00, -0.00, -1.00, 628.3, 258.5)">i</text><text xml:space="preserve" font-family="Helvetica-Light,Helvetica" font-size="19.5" fill="#000000" transform="matrix(1.00, 0.00, -0.00, -1.00, 632.6, 258.5)">e</text><text xml:space="preserve" font-family="Helvetica-Light,Helvetica" font-size="19.5" fill="#000000" transform="matrix(1.00, 0.00, -0.00, -1.00, 643.4, 258.5)">n</text><text xml:space="preserve" font-family="Helvetica-Light,Helvetica" font-size="19.5" fill="#000000" transform="matrix(1.00, 0.00, -0.00, -1.00, 654.3, 258.5)">c</text><text xml:space="preserve" font-family="Helvetica-Light,Helvetica" font-size="19.5" fill="#000000" transform="matrix(1.00, 0.00, -0.00, -1.00, 665.2, 258.5)">e</text><text xml:space="preserve" font-family="Helvetica-Light,Helvetica" font-size="19.5" fill="#000000" transform="matrix(1.00, 0.00, -0.00, -1.00, 676.0, 258.5)">s</text><text xml:space="preserve" font-family="Helvetica-Light,Helvetica" font-size="19.5" fill="#000000" transform="matrix(1.00, 0.00, -0.00, -1.00, 685.8, 258.5)"> </text><text xml:space="preserve" font-family="Helvetica-Light,Helvetica" font-size="19.5" fill="#000000" transform="matrix(1.00, 0.00, -0.00, -1.00, 448.3, 235.5)">s</text><text xml:space="preserve" font-family="Helvetica-Light,Helvetica" font-size="19.5" fill="#000000" transform="matrix(1.00, 0.00, -0.00, -1.00, 458.1, 235.5)">r</text><text xml:space="preserve" font-family="Helvetica-Light,Helvetica" font-size="19.5" fill="#000000" transform="matrix(1.00, 0.00, -0.00, -1.00, 464.6, 235.5)">3</text><text xml:space="preserve" font-family="Helvetica-Light,Helvetica" font-size="19.5" fill="#000000" transform="matrix(1.00, 0.00, -0.00, -1.00, 475.4, 235.5)">2</text><text xml:space="preserve" font-family="Helvetica-Light,Helvetica" font-size="19.5" fill="#000000" transform="matrix(1.00, 0.00, -0.00, -1.00, 486.3, 235.5)">0</text><text xml:space="preserve" font-family="Helvetica-Light,Helvetica" font-size="19.5" fill="#000000" transform="matrix(1.00, 0.00, -0.00, -1.00, 497.1, 235.5)">@</text><text xml:space="preserve" font-family="Helvetica-Light,Helvetica" font-size="19.5" fill="#000000" transform="matrix(1.00, 0.00, -0.00, -1.00, 512.8, 235.5)">u</text><text xml:space="preserve" font-family="Helvetica-Light,Helvetica" font-size="19.5" fill="#000000" transform="matrix(1.00, 0.00, -0.00, -1.00, 523.6, 235.5)">w</text><text xml:space="preserve" font-family="Helvetica-Light,Helvetica" font-size="19.5" fill="#000000" transform="matrix(1.00, 0.00, -0.00, -1.00, 536.6, 235.5)">.</text><text xml:space="preserve" font-family="Helvetica-Light,Helvetica" font-size="19.5" fill="#000000" transform="matrix(1.00, 0.00, -0.00, -1.00, 542.1, 235.5)">e</text><text xml:space="preserve" font-family="Helvetica-Light,Helvetica" font-size="19.5" fill="#000000" transform="matrix(1.00, 0.00, -0.00, -1.00, 552.9, 235.5)">d</text><text xml:space="preserve" font-family="Helvetica-Light,Helvetica" font-size="19.5" fill="#000000" transform="matrix(1.00, 0.00, -0.00, -1.00, 564.8, 235.5)">u</text><text xml:space="preserve" font-family="Helvetica-Light,Helvetica" font-size="19.5" fill="#000000" transform="matrix(1.00, 0.00, -0.00, -1.00, 575.7, 235.5)"> </text><text xml:space="preserve" font-family="Helvetica-Light,Helvetica" font-size="19.5" fill="#000000" transform="matrix(1.00, 0.00, -0.00, -1.00, 479.8, 212.5)">@</text><text xml:space="preserve" font-family="Helvetica-Light,Helvetica" font-size="19.5" fill="#000000" transform="matrix(1.00, 0.00, -0.00, -1.00, 495.4, 212.5)">s</text><text xml:space="preserve" font-family="Helvetica-Light,Helvetica" font-size="19.5" fill="#000000" transform="matrix(1.00, 0.00, -0.00, -1.00, 505.2, 212.5)">r</text><text xml:space="preserve" font-family="Helvetica-Light,Helvetica" font-size="19.5" fill="#000000" transform="matrix(1.00, 0.00, -0.00, -1.00, 511.7, 212.5)">3</text><text xml:space="preserve" font-family="Helvetica-Light,Helvetica" font-size="19.5" fill="#000000" transform="matrix(1.00, 0.00, -0.00, -1.00, 522.5, 212.5)">2</text><text xml:space="preserve" font-family="Helvetica-Light,Helvetica" font-size="19.5" fill="#000000" transform="matrix(1.00, 0.00, -0.00, -1.00, 533.4, 212.5)">0</text></g></svg>